<?xml version="1.0" encoding="UTF-8"?>
<svg xmlns="http://www.w3.org/2000/svg" xmlns:xlink="http://www.w3.org/1999/xlink" width="90px" height="90px" viewBox="0 0 90 90" version="1.1">
<g id="surface1">
<path style=" stroke:none;fill-rule:nonzero;fill:rgb(0%,0%,0%);fill-opacity:1;" d="M 0.175781 26.976562 C 0.722656 25.867188 1.097656 24.753906 1.863281 23.84375 C 3.761719 21.589844 6.269531 20.308594 8.953125 19.292969 C 9.117188 19.230469 9.28125 19.160156 9.453125 19.125 C 10.722656 18.863281 11.542969 18.273438 12.234375 17.003906 C 13.976562 13.804688 18.242188 13.523438 20.625 16.273438 C 20.988281 16.695312 21.355469 16.859375 21.902344 16.832031 C 23.773438 16.742188 25.640625 16.574219 27.519531 16.644531 C 27.988281 16.664062 28.273438 16.410156 28.5625 16.105469 C 31.972656 12.519531 36.121094 10.28125 40.945312 9.195312 C 50.664062 7.011719 61.46875 11.773438 66.34375 20.453125 C 66.714844 21.117188 67.183594 21.765625 67.371094 22.484375 C 67.773438 24.015625 68.878906 24.597656 70.214844 25.117188 C 73.25 26.292969 76.148438 27.765625 78.949219 29.433594 C 79.546875 29.789062 79.945312 30.269531 79.804688 31.011719 C 79.679688 31.660156 79.226562 32.011719 78.597656 32.136719 C 78.09375 32.238281 77.691406 31.953125 77.292969 31.71875 C 71.980469 28.613281 66.296875 26.371094 60.433594 24.570312 C 54.53125 22.757812 48.507812 21.480469 42.394531 20.582031 C 35.972656 19.640625 29.527344 19.367188 23.050781 19.566406 C 22.324219 19.585938 21.917969 19.730469 21.742188 20.578125 C 21.25 22.96875 19.605469 24.453125 17.277344 24.804688 C 15.230469 25.117188 13.164062 24 11.996094 21.929688 C 11.824219 21.625 11.707031 21.367188 11.277344 21.503906 C 8.75 22.3125 6.308594 23.277344 4.421875 25.25 C 2.894531 26.847656 2.503906 28.675781 3.332031 30.742188 C 4.230469 32.988281 5.871094 34.652344 7.644531 36.203125 C 9.996094 38.261719 14.746094 41.195312 17.738281 42.441406 C 17.539062 42.078125 17.378906 41.800781 17.230469 41.519531 C 15.980469 39.191406 16.511719 36.878906 18.667969 35.335938 C 20.347656 34.132812 22.292969 33.566406 24.285156 33.195312 C 28.394531 32.433594 32.542969 32.488281 36.699219 32.773438 C 38.480469 32.898438 40.246094 33.101562 42.011719 33.34375 C 42.242188 33.375 42.480469 33.410156 42.695312 33.484375 C 43.453125 33.75 43.796875 34.375 43.628906 35.144531 C 43.484375 35.808594 42.859375 36.25 42.101562 36.171875 C 41.148438 36.074219 40.195312 35.949219 39.15625 35.824219 C 38.59375 38.0625 38.046875 40.234375 37.503906 42.410156 C 36.082031 48.109375 34.667969 53.808594 33.242188 59.503906 C 33.113281 60.019531 32.953125 60.523438 32.460938 60.828125 C 31.957031 61.140625 31.449219 61.128906 30.976562 60.796875 C 30.363281 60.371094 30.253906 59.765625 30.425781 59.082031 C 30.941406 57.011719 31.460938 54.945312 31.980469 52.875 C 33.367188 47.347656 34.753906 41.824219 36.140625 36.296875 C 36.1875 36.101562 36.195312 35.898438 36.230469 35.660156 C 35.773438 35.476562 35.316406 35.40625 34.851562 35.402344 C 32.304688 35.375 29.757812 35.308594 27.21875 35.566406 C 26.382812 35.648438 25.910156 35.953125 25.601562 36.832031 C 23.101562 43.953125 20.535156 51.054688 17.984375 58.160156 C 17.898438 58.40625 17.8125 58.660156 17.699219 58.894531 C 17.371094 59.558594 16.832031 59.839844 16.113281 59.664062 C 15.339844 59.476562 14.976562 58.917969 15.082031 58.160156 C 15.160156 57.589844 15.382812 57.035156 15.578125 56.484375 C 16.679688 53.398438 17.769531 50.304688 18.917969 47.238281 C 19.214844 46.453125 19.039062 46.136719 18.285156 45.8125 C 14.324219 44.101562 10.535156 42.0625 7.109375 39.414062 C 4.421875 37.335938 2.003906 35.007812 0.710938 31.757812 C 0.527344 31.296875 0.386719 30.820312 0.199219 30.292969 C 0.175781 29.175781 0.175781 28.117188 0.175781 26.976562 M 60.386719 17.394531 C 51.042969 8.460938 37.773438 10.941406 32.265625 16.75 C 43.207031 17.332031 53.855469 19.40625 64.453125 22.882812 C 63.324219 20.722656 62.050781 18.992188 60.386719 17.394531 M 14.566406 18.554688 C 14.109375 19.691406 14.269531 20.628906 15.050781 21.367188 C 15.707031 21.988281 16.84375 22.148438 17.671875 21.738281 C 18.59375 21.28125 19.070312 20.410156 18.972656 19.367188 C 18.875 18.386719 18.234375 17.628906 17.265625 17.351562 C 16.277344 17.070312 15.382812 17.4375 14.566406 18.554688 M 21.390625 40.296875 C 21.800781 39.117188 22.214844 37.9375 22.625 36.757812 C 21.1875 37.074219 19.894531 37.433594 19.433594 38.875 C 19.195312 39.613281 19.957031 40.847656 20.929688 41.464844 C 21.070312 41.113281 21.207031 40.769531 21.390625 40.296875 Z M 21.390625 40.296875 "/>
<path style=" stroke:none;fill-rule:nonzero;fill:rgb(0%,0%,0%);fill-opacity:1;" d="M 90.175781 44.390625 C 89.339844 47.710938 87.058594 49.6875 84.253906 51.160156 C 80.839844 52.953125 77.136719 53.785156 73.363281 54.378906 C 71.019531 54.746094 68.652344 54.886719 66.289062 55.03125 C 65.652344 55.070312 65.449219 55.28125 65.4375 55.925781 C 65.335938 60.492188 65.207031 65.054688 65.0625 69.621094 C 64.914062 74.359375 64.738281 79.09375 64.570312 83.832031 C 64.539062 84.746094 64 85.308594 63.179688 85.308594 C 62.351562 85.308594 61.824219 84.761719 61.820312 83.820312 C 61.804688 80.308594 61.996094 76.800781 62.140625 73.289062 C 62.21875 71.332031 62.234375 69.371094 62.3125 67.410156 C 62.515625 62.320312 62.589844 57.226562 62.734375 52.136719 C 62.816406 49.296875 62.933594 46.460938 63.050781 43.625 C 63.074219 43.074219 62.933594 42.6875 62.414062 42.410156 C 59.765625 41.007812 56.996094 39.90625 54.144531 39 C 53.976562 38.945312 53.808594 38.902344 53.527344 39.054688 C 53.289062 40.828125 53.039062 42.675781 52.796875 44.519531 C 52.496094 46.777344 52.210938 49.039062 51.898438 51.296875 C 51.765625 52.234375 51.203125 52.6875 50.355469 52.625 C 49.535156 52.5625 49.046875 51.996094 49.15625 51.023438 C 49.445312 48.410156 49.792969 45.804688 50.128906 43.199219 C 50.316406 41.722656 50.527344 40.25 50.730469 38.777344 C 50.800781 38.269531 50.667969 37.9375 50.097656 37.832031 C 49.496094 37.71875 48.898438 37.5625 48.316406 37.371094 C 47.523438 37.113281 47.109375 36.375 47.3125 35.667969 C 47.523438 34.925781 48.207031 34.488281 49.027344 34.6875 C 54.996094 36.121094 60.8125 37.96875 66.03125 41.324219 C 67.445312 42.226562 68.738281 43.285156 69.726562 44.664062 C 71.632812 47.320312 71.230469 49.800781 68.597656 51.738281 C 68.488281 51.816406 68.375 51.898438 68.097656 52.101562 C 73.496094 51.636719 78.644531 50.988281 83.328125 48.460938 C 85.242188 47.429688 86.902344 46.101562 87.375 43.773438 C 87.609375 42.617188 87.300781 41.558594 86.847656 40.542969 C 86.027344 38.714844 84.667969 37.296875 83.214844 35.960938 C 82.933594 35.703125 82.621094 35.464844 82.488281 35.097656 C 82.257812 34.453125 82.378906 33.878906 82.949219 33.457031 C 83.519531 33.039062 84.117188 33.046875 84.644531 33.5 C 87.054688 35.570312 89.125 37.882812 90.007812 41.042969 C 90.039062 41.152344 90.082031 41.261719 90.144531 41.429688 C 90.175781 42.425781 90.175781 43.367188 90.175781 44.390625 M 67.867188 47.011719 C 67.394531 46.136719 66.804688 45.371094 65.757812 44.773438 C 65.757812 46.582031 65.757812 48.246094 65.757812 49.914062 C 67.410156 49.628906 68.300781 48.480469 67.867188 47.011719 Z M 67.867188 47.011719 "/>
<path style=" stroke:none;fill-rule:nonzero;fill:rgb(0%,0%,0%);fill-opacity:1;" d="M 77.8125 24.625 C 74.410156 25.324219 71.78125 23.523438 71.257812 20.203125 C 70.902344 17.957031 72.402344 15.507812 74.613281 14.738281 C 76.941406 13.925781 79.640625 14.859375 80.8125 16.882812 C 82.585938 19.945312 81.265625 23.425781 77.8125 24.625 M 78.207031 21.152344 C 78.328125 20.953125 78.472656 20.765625 78.566406 20.550781 C 79.121094 19.242188 78.460938 17.808594 77.113281 17.378906 C 75.816406 16.964844 74.429688 17.734375 74.109375 19.042969 C 73.859375 20.042969 74.273438 21.078125 75.144531 21.625 C 76.042969 22.195312 77.117188 22.058594 78.207031 21.152344 Z M 78.207031 21.152344 "/>
<path style=" stroke:none;fill-rule:nonzero;fill:rgb(0%,0%,0%);fill-opacity:1;" d="M 8.644531 33.890625 C 7.058594 31.980469 7.117188 29.738281 8.742188 28.277344 C 10.414062 26.773438 13.351562 26.859375 15.003906 28.460938 C 16.363281 29.777344 16.683594 31.746094 15.792969 33.269531 C 14.851562 34.882812 12.679688 35.667969 10.722656 35.105469 C 9.945312 34.882812 9.273438 34.492188 8.644531 33.890625 M 10.503906 30.601562 C 10.089844 31.199219 10.363281 31.660156 10.824219 32.042969 C 11.476562 32.578125 12.40625 32.597656 13.019531 32.121094 C 13.527344 31.730469 13.585938 31.269531 13.21875 30.75 C 12.65625 29.957031 11.488281 29.847656 10.503906 30.601562 Z M 10.503906 30.601562 "/>
<path style=" stroke:none;fill-rule:nonzero;fill:rgb(0%,0%,0%);fill-opacity:1;" d="M 62.707031 36.648438 C 60.84375 35.507812 60.0625 33.777344 60.578125 32.042969 C 61.097656 30.289062 62.769531 29.109375 64.710938 29.128906 C 66.808594 29.152344 68.65625 30.5 69.125 32.355469 C 69.789062 34.960938 67.59375 37.410156 64.78125 37.210938 C 64.074219 37.160156 63.394531 37.023438 62.707031 36.648438 M 63.460938 33.617188 C 63.890625 34.21875 64.480469 34.457031 65.207031 34.386719 C 65.960938 34.3125 66.46875 33.78125 66.386719 33.152344 C 66.289062 32.410156 65.351562 31.886719 64.382812 32.027344 C 63.539062 32.148438 63.253906 32.574219 63.460938 33.617188 Z M 63.460938 33.617188 "/>
<path style=" stroke:none;fill-rule:nonzero;fill:rgb(0%,0%,0%);fill-opacity:1;" d="M 81.570312 46.035156 C 80.332031 47.574219 78.769531 48.09375 76.933594 47.679688 C 75.203125 47.285156 74.019531 46.246094 73.554688 44.492188 C 73.179688 43.082031 73.59375 41.863281 74.636719 40.914062 C 76.003906 39.667969 77.621094 39.390625 79.363281 40.042969 C 81 40.65625 82.015625 41.804688 82.234375 43.578125 C 82.34375 44.457031 82.085938 45.25 81.570312 46.035156 M 76.382812 43.285156 C 76.261719 44.566406 77.484375 45.371094 78.726562 44.816406 C 79.488281 44.476562 79.640625 43.714844 79.066406 43.113281 C 78.359375 42.375 77.199219 42.394531 76.382812 43.285156 Z M 76.382812 43.285156 "/>
<path style=" stroke:none;fill-rule:nonzero;fill:rgb(0%,0%,0%);fill-opacity:1;" d="M 30.234375 22.8125 C 31.789062 23.859375 32.53125 25.253906 32.183594 27.050781 C 31.898438 28.550781 30.890625 29.503906 29.449219 29.980469 C 26.507812 30.945312 23.453125 28.875 23.484375 25.9375 C 23.511719 23.539062 25.875 21.699219 28.363281 22.148438 C 29 22.265625 29.617188 22.445312 30.234375 22.8125 M 28.171875 27.363281 C 29.128906 27.171875 29.597656 26.667969 29.40625 26.035156 C 29.199219 25.335938 28.320312 24.882812 27.40625 24.996094 C 26.78125 25.074219 26.378906 25.417969 26.285156 26.03125 C 26.195312 26.597656 26.914062 27.207031 27.773438 27.355469 C 27.859375 27.371094 27.945312 27.363281 28.171875 27.363281 Z M 28.171875 27.363281 "/>
<path style=" stroke:none;fill-rule:nonzero;fill:rgb(0%,0%,0%);fill-opacity:1;" d="M 49.402344 24.933594 C 50.824219 26.066406 51.363281 27.484375 50.90625 29.179688 C 50.449219 30.863281 49.183594 31.75 47.539062 31.996094 C 45.660156 32.273438 44.054688 31.660156 42.957031 30.042969 C 42.121094 28.808594 42 27.460938 42.710938 26.136719 C 43.425781 24.796875 44.597656 24.101562 46.125 24.011719 C 47.300781 23.945312 48.394531 24.160156 49.402344 24.933594 M 47.210938 29.171875 C 47.753906 29.023438 48.242188 28.757812 48.246094 28.144531 C 48.246094 27.535156 47.800781 27.164062 47.246094 26.945312 C 46.945312 26.824219 46.632812 26.746094 46.308594 26.796875 C 45.71875 26.882812 45.207031 27.132812 45.097656 27.765625 C 44.996094 28.371094 45.425781 28.734375 45.914062 28.984375 C 46.273438 29.164062 46.65625 29.335938 47.210938 29.171875 Z M 47.210938 29.171875 "/>
<path style=" stroke:none;fill-rule:nonzero;fill:rgb(0%,0%,0%);fill-opacity:1;" d="M 14.261719 68.550781 C 13.554688 70.511719 12.886719 72.417969 12.179688 74.304688 C 11.785156 75.351562 10.816406 75.714844 10.023438 75.160156 C 9.402344 74.726562 9.289062 74.09375 9.515625 73.441406 C 10.636719 70.269531 11.769531 67.105469 12.933594 63.949219 C 13.230469 63.140625 13.972656 62.855469 14.714844 63.132812 C 15.421875 63.398438 15.792969 64.128906 15.535156 64.925781 C 15.148438 66.121094 14.703125 67.296875 14.261719 68.550781 Z M 14.261719 68.550781 "/>
<path style=" stroke:none;fill-rule:nonzero;fill:rgb(0%,0%,0%);fill-opacity:1;" d="M 19.210938 5.761719 C 20.007812 4.859375 20.675781 4.765625 21.507812 5.480469 C 21.941406 5.851562 22.214844 5.941406 22.667969 5.496094 C 23.308594 4.871094 24.171875 4.886719 24.707031 5.425781 C 25.277344 5.996094 25.257812 6.753906 24.65625 7.472656 C 24.507812 7.652344 24.359375 7.824219 24.214844 7.992188 C 25.222656 9.519531 25.3125 10.09375 24.664062 10.691406 C 23.992188 11.308594 23.492188 11.210938 22.058594 10.144531 C 21.296875 10.828125 20.464844 11.664062 19.414062 10.582031 C 18.855469 10.003906 19.027344 9.285156 19.96875 8.035156 C 19.449219 7.417969 18.824219 6.78125 19.210938 5.761719 Z M 19.210938 5.761719 "/>
<path style=" stroke:none;fill-rule:nonzero;fill:rgb(0%,0%,0%);fill-opacity:1;" d="M 71.226562 6.539062 C 71.308594 7.382812 70.683594 7.789062 70.3125 8.308594 C 71.363281 9.84375 71.449219 10.292969 70.835938 10.933594 C 70.234375 11.566406 69.585938 11.460938 68.222656 10.5 C 67.9375 10.53125 67.800781 10.785156 67.601562 10.945312 C 66.910156 11.503906 66.171875 11.519531 65.625 10.976562 C 65.042969 10.398438 64.980469 9.683594 65.589844 9.019531 C 66.035156 8.53125 66.082031 8.214844 65.609375 7.707031 C 64.980469 7.027344 65.039062 6.21875 65.628906 5.671875 C 66.136719 5.203125 66.976562 5.25 67.632812 5.785156 C 67.808594 5.929688 67.984375 6.078125 68.148438 6.21875 C 70.117188 5.023438 70.613281 5.070312 71.226562 6.539062 Z M 71.226562 6.539062 "/>
<path style=" stroke:none;fill-rule:nonzero;fill:rgb(0%,0%,0%);fill-opacity:1;" d="M 73.125 67.742188 C 72.347656 67.828125 72.03125 67.125 71.445312 66.910156 C 71.183594 67.113281 70.953125 67.339844 70.679688 67.5 C 70.039062 67.871094 69.378906 67.914062 68.851562 67.320312 C 68.339844 66.75 68.304688 66.066406 68.824219 65.496094 C 69.296875 64.980469 69.433594 64.617188 68.859375 64.058594 C 68.296875 63.507812 68.363281 62.671875 68.863281 62.167969 C 69.355469 61.667969 70.191406 61.601562 70.761719 62.128906 C 71.257812 62.582031 71.601562 62.683594 72.140625 62.179688 C 72.769531 61.59375 73.589844 61.648438 74.105469 62.179688 C 74.625 62.71875 74.617188 63.460938 74.078125 64.167969 C 73.9375 64.347656 73.78125 64.523438 73.640625 64.691406 C 74.757812 66.832031 74.667969 67.4375 73.125 67.742188 Z M 73.125 67.742188 "/>
</g>
</svg>
